<svg width="194" height="28" viewBox="0 0 194 28" fill="none" xmlns="http://www.w3.org/2000/svg">
<path d="M7.10352 22.2539H17.8438V27H0.933594V1.40625H7.10352V22.2539ZM31.2559 24.9434C30.002 26.5488 28.3086 27.3516 26.1758 27.3516C24.0898 27.3516 22.5078 26.748 21.4297 25.541C20.3633 24.3223 19.8301 22.5762 19.8301 20.3027V7.98047H25.7539V20.3379C25.7539 21.9668 26.5449 22.7812 28.127 22.7812C29.4863 22.7812 30.4531 22.2949 31.0273 21.3223V7.98047H36.9863V27H31.4316L31.2559 24.9434ZM48.2891 22.7812C49.1211 22.7812 49.7656 22.5586 50.2227 22.1133C50.6797 21.6562 50.9023 21.0234 50.8906 20.2148H56.4453C56.4453 22.3008 55.6953 24.0117 54.1953 25.3477C52.707 26.6836 50.7852 27.3516 48.4297 27.3516C45.6641 27.3516 43.4844 26.4844 41.8906 24.75C40.2969 23.0156 39.5 20.6133 39.5 17.543V17.2969C39.5 15.375 39.8516 13.6816 40.5547 12.2168C41.2695 10.7402 42.2949 9.60938 43.6309 8.82422C44.9668 8.02734 46.5488 7.62891 48.377 7.62891C50.8496 7.62891 52.8125 8.31445 54.2656 9.68555C55.7188 11.0566 56.4453 12.9141 56.4453 15.2578H50.8906C50.8906 14.2734 50.6504 13.5176 50.1699 12.9902C49.6895 12.4629 49.0449 12.1992 48.2363 12.1992C46.7012 12.1992 45.8047 13.1777 45.5469 15.1348C45.4648 15.7559 45.4238 16.6113 45.4238 17.7012C45.4238 19.6113 45.6523 20.9355 46.1094 21.6738C46.5664 22.4121 47.293 22.7812 48.2891 22.7812ZM69.6641 27C69.4531 26.6133 69.2656 26.0449 69.1016 25.2949C68.0117 26.666 66.4883 27.3516 64.5312 27.3516C62.7383 27.3516 61.2148 26.8125 59.9609 25.7344C58.707 24.6445 58.0801 23.2793 58.0801 21.6387C58.0801 19.5762 58.8418 18.0176 60.3652 16.9629C61.8887 15.9082 64.1035 15.3809 67.0098 15.3809H68.8379V14.3789C68.8379 12.6328 68.082 11.7598 66.5703 11.7598C65.1641 11.7598 64.4609 12.4512 64.4609 13.834H58.5371C58.5371 11.9941 59.3164 10.5 60.875 9.35156C62.4453 8.20312 64.4434 7.62891 66.8691 7.62891C69.2949 7.62891 71.2109 8.2207 72.6172 9.4043C74.0234 10.5879 74.7441 12.2109 74.7793 14.2734V22.6934C74.8027 24.4395 75.0723 25.7754 75.5879 26.7012V27H69.6641ZM65.9551 23.1328C66.6934 23.1328 67.3027 22.9746 67.7832 22.6582C68.2754 22.3418 68.627 21.9844 68.8379 21.5859V18.5449H67.1152C65.0527 18.5449 64.0215 19.4707 64.0215 21.3223C64.0215 21.8613 64.2031 22.3008 64.5664 22.6406C64.9297 22.9688 65.3926 23.1328 65.9551 23.1328ZM88.0332 21.6562C88.0332 21.1523 87.7695 20.748 87.2422 20.4434C86.7148 20.1387 85.7129 19.8223 84.2363 19.4941C82.7598 19.166 81.541 18.7383 80.5801 18.2109C79.6191 17.6719 78.8867 17.0215 78.3828 16.2598C77.8789 15.498 77.627 14.625 77.627 13.6406C77.627 11.8945 78.3477 10.459 79.7891 9.33398C81.2305 8.19727 83.1172 7.62891 85.4492 7.62891C87.957 7.62891 89.9727 8.19727 91.4961 9.33398C93.0195 10.4707 93.7812 11.9648 93.7812 13.8164H87.8398C87.8398 12.293 87.0371 11.5312 85.4316 11.5312C84.8105 11.5312 84.2891 11.707 83.8672 12.0586C83.4453 12.3984 83.2344 12.8262 83.2344 13.3418C83.2344 13.8691 83.4922 14.2969 84.0078 14.625C84.5234 14.9531 85.3438 15.2227 86.4688 15.4336C87.6055 15.6445 88.6016 15.8965 89.457 16.1895C92.3164 17.1738 93.7461 18.9375 93.7461 21.4805C93.7461 23.2148 92.9727 24.627 91.4258 25.7168C89.8906 26.8066 87.8984 27.3516 85.4492 27.3516C83.8203 27.3516 82.3672 27.0586 81.0898 26.4727C79.8125 25.8867 78.8164 25.0898 78.1016 24.082C77.3867 23.0742 77.0293 22.0137 77.0293 20.9004H82.5664C82.5898 21.7793 82.8828 22.4238 83.4453 22.834C84.0078 23.2324 84.7285 23.4316 85.6074 23.4316C86.416 23.4316 87.0195 23.2676 87.418 22.9395C87.8281 22.6113 88.0332 22.1836 88.0332 21.6562ZM120.307 22.2188H111.852L110.375 27H103.783L113.17 1.40625H118.971L128.428 27H121.801L120.307 22.2188ZM113.328 17.4551H118.83L116.07 8.57812L113.328 17.4551ZM136.285 27H130.344V0H136.285V27ZM147.535 19.9512L150.541 7.98047H156.781L150.576 27H144.529L138.324 7.98047H144.582L147.535 19.9512ZM167.504 27.3516C164.586 27.3516 162.225 26.4844 160.42 24.75C158.615 23.0039 157.713 20.7363 157.713 17.9473V17.4551C157.713 15.5098 158.07 13.793 158.785 12.3047C159.512 10.8164 160.566 9.66797 161.949 8.85938C163.332 8.03906 164.973 7.62891 166.871 7.62891C169.543 7.62891 171.652 8.46094 173.199 10.125C174.746 11.7773 175.52 14.0859 175.52 17.0508V19.3535H163.742C163.953 20.4199 164.416 21.2578 165.131 21.8672C165.846 22.4766 166.771 22.7812 167.908 22.7812C169.783 22.7812 171.248 22.125 172.303 20.8125L175.01 24.0117C174.271 25.0312 173.223 25.8457 171.863 26.4551C170.516 27.0527 169.062 27.3516 167.504 27.3516ZM166.836 12.1992C165.102 12.1992 164.07 13.3477 163.742 15.6445H169.719V15.1875C169.742 14.2383 169.502 13.5059 168.998 12.9902C168.494 12.4629 167.773 12.1992 166.836 12.1992ZM187.877 21.6562C187.877 21.1523 187.613 20.748 187.086 20.4434C186.559 20.1387 185.557 19.8223 184.08 19.4941C182.604 19.166 181.385 18.7383 180.424 18.2109C179.463 17.6719 178.73 17.0215 178.227 16.2598C177.723 15.498 177.471 14.625 177.471 13.6406C177.471 11.8945 178.191 10.459 179.633 9.33398C181.074 8.19727 182.961 7.62891 185.293 7.62891C187.801 7.62891 189.816 8.19727 191.34 9.33398C192.863 10.4707 193.625 11.9648 193.625 13.8164H187.684C187.684 12.293 186.881 11.5312 185.275 11.5312C184.654 11.5312 184.133 11.707 183.711 12.0586C183.289 12.3984 183.078 12.8262 183.078 13.3418C183.078 13.8691 183.336 14.2969 183.852 14.625C184.367 14.9531 185.188 15.2227 186.312 15.4336C187.449 15.6445 188.445 15.8965 189.301 16.1895C192.16 17.1738 193.59 18.9375 193.59 21.4805C193.59 23.2148 192.816 24.627 191.27 25.7168C189.734 26.8066 187.742 27.3516 185.293 27.3516C183.664 27.3516 182.211 27.0586 180.934 26.4727C179.656 25.8867 178.66 25.0898 177.945 24.082C177.23 23.0742 176.873 22.0137 176.873 20.9004H182.41C182.434 21.7793 182.727 22.4238 183.289 22.834C183.852 23.2324 184.572 23.4316 185.451 23.4316C186.26 23.4316 186.863 23.2676 187.262 22.9395C187.672 22.6113 187.877 22.1836 187.877 21.6562Z" fill="#31FF9C"/>
</svg>
